PathFileType	4	(X/Y/Z)	SUBJ26_2_walk_RCNL2025.trc
DataRate	CameraRate	NumFrames	NumMarkers	Units	OrigDataRate	OrigDataStartFrame	OrigNumFrames
100	100	7	25	mm	100	171	341
Frame#	Time	R_Shoulder			L_Shoulder			C7			J_Notch			R_Elbow			L_Elbow			R_Wrist			L_Wrist			R_Asis			L_Asis			Sacral			Thoracic			Sternum			R_Thigh_Lateral			R_Knee_Lateral			R_Shank_Lateral			R_Ankle_Lateral			R_Heel			R_Toe			L_Thigh_Lateral			L_Knee_Lateral			L_Shank_Lateral			L_Ankle_Lateral			L_Heel			L_Toe		
		X1	Y1	Z1	X2	Y2	Z2	X3	Y3	Z3	X4	Y4	Z4	X5	Y5	Z5	X6	Y6	Z6	X7	Y7	Z7	X8	Y8	Z8	X9	Y9	Z9	X10	Y10	Z10	X11	Y11	Z11	X12	Y12	Z12	X13	Y13	Z13	X14	Y14	Z14	X15	Y15	Z15	X16	Y16	Z16	X17	Y17	Z17	X18	Y18	Z18	X19	Y19	Z19	X20	Y20	Z20	X21	Y21	Z21	X22	Y22	Z22	X23	Y23	Z23	X24	Y24	Z24	X25	Y25	Z25
171	1.70000000	597.092285	1278.291748	-15.594566	535.510803	1296.195190	-346.059235	485.347504	1346.945557	-153.452789	630.097900	1252.666138	-193.247177	593.282715	965.833130	95.563156	393.237030	987.736816	-420.747528	743.714905	763.844910	66.833208	418.882065	741.234222	-427.878708	624.393982	885.952454	-51.577049	579.046997	878.732117	-351.614319	398.602051	888.373413	-174.454834	414.522186	1000.922424	-173.459137	679.052002	997.789856	-203.835388	436.018616	581.758789	-2.148140	378.352264	446.176331	-74.801216	295.030945	317.428955	-32.447395	189.832962	95.974068	-108.093437	134.133118	109.002487	-163.503601	297.779602	42.773071	-146.168411	605.809082	567.383545	-379.470093	706.172668	430.312439	-306.925537	746.400452	257.471893	-374.097687	824.431152	61.282200	-289.808594	770.621948	29.298647	-235.381195	942.737854	73.489670	-253.132172
172	1.71000000	610.318481	1278.430908	-17.313881	548.560852	1295.508545	-348.194153	498.376862	1346.219482	-155.658157	643.820251	1252.867432	-195.293625	604.703857	965.577759	94.054138	405.732635	986.889221	-421.524292	755.198242	763.454712	66.202745	429.532715	740.284790	-429.273865	640.168762	885.768921	-52.809235	595.896545	878.766479	-352.491302	414.377045	887.626404	-176.179077	430.081329	999.803955	-174.408295	694.727051	998.384094	-205.317566	451.249695	581.245056	-2.266358	393.152893	445.553375	-74.041916	306.144409	319.442902	-31.129585	193.983322	100.779770	-105.719559	139.151093	116.639412	-161.039307	299.038940	42.725716	-145.583633	624.285583	568.454407	-379.578705	722.080750	430.420654	-306.301636	759.972290	257.177277	-372.184875	830.111694	59.333916	-287.782043	773.428711	29.671162	-234.903275	947.713440	67.105415	-249.046478
173	1.72000000	623.644958	1278.847290	-19.017597	561.757812	1294.959961	-350.343567	511.548706	1345.797485	-157.923065	657.640320	1253.346436	-197.384567	615.818542	965.545410	92.557480	418.821442	986.086548	-422.433167	766.128998	763.110443	65.499220	440.822037	739.433197	-430.950546	656.050659	885.536438	-54.277412	612.648987	879.320496	-353.395416	430.162567	887.174438	-177.682632	445.602020	999.014893	-175.151657	710.696899	999.240784	-206.708481	466.970703	580.655396	-2.445940	408.771484	444.743225	-73.150757	318.058258	321.491669	-29.691679	198.915604	105.884666	-103.193268	145.359756	124.773941	-158.552460	300.380676	42.575493	-144.957962	642.734497	569.995972	-379.997131	738.130310	431.097382	-305.998932	773.383667	257.512360	-370.771332	834.548218	57.821022	-286.293579	775.355957	30.342289	-234.726288	951.482117	61.012432	-245.753021
174	1.73000000	637.114319	1279.544678	-20.726629	575.108826	1294.567139	-352.481934	524.880676	1345.694336	-160.214508	671.547607	1254.084595	-199.503830	626.693848	965.778687	91.064255	432.522339	985.344849	-423.458771	776.511383	762.815552	64.719534	452.759430	738.695587	-432.899765	671.946106	885.221252	-55.957439	629.181213	880.448120	-354.351501	445.913452	886.986206	-178.951660	461.029388	998.552002	-175.719604	726.842651	1000.344299	-207.997452	483.170807	579.943176	-2.647469	425.278076	443.711060	-72.113777	330.881927	323.554260	-28.144123	204.806381	111.274910	-100.552475	152.971176	133.361115	-156.093597	301.830933	42.333103	-144.312088	661.068237	571.982544	-380.777374	754.272766	432.274567	-306.077759	786.623169	258.270203	-369.970795	837.958557	56.734718	-285.322357	776.720215	31.190487	-234.781021	954.301819	55.541622	-243.345627
175	1.74000000	650.758057	1280.518677	-22.471605	588.608032	1294.350342	-354.583649	538.369812	1345.899292	-162.497498	685.527344	1255.049805	-201.633896	637.396851	966.311218	89.568504	446.827393	984.682434	-424.585663	786.357574	762.574554	63.859316	465.358505	738.089600	-435.103973	687.753662	884.804016	-57.801437	645.412537	882.159668	-355.372131	461.578979	887.009216	-179.990540	476.333618	998.391907	-176.166092	743.009338	1001.664185	-209.182907	499.844452	579.040100	-2.817119	442.752869	442.398376	-70.925964	344.749115	325.575897	-26.505394	211.859009	116.930107	-97.842117	162.173264	142.339951	-153.681808	303.464050	42.050098	-143.672821	679.226685	574.367798	-381.966064	770.262451	433.745422	-306.516602	799.565979	259.126251	-369.770294	840.568726	55.999470	-284.777618	777.745667	32.098160	-234.990631	956.411255	50.885410	-241.762405
176	1.75000000	664.586975	1281.751343	-24.281839	602.240234	1294.326538	-356.625702	551.993347	1346.375732	-164.737350	699.560059	1256.199829	-203.754456	647.987732	967.156860	88.068375	461.697083	984.116455	-425.799103	795.690094	762.387665	62.913233	478.634232	737.627625	-437.533890	703.373108	884.286987	-59.749805	661.299316	884.410889	-356.454773	477.096222	887.184509	-180.820694	491.497772	998.507202	-176.551163	759.032776	1003.149353	-210.271011	517.002563	577.861572	-2.900790	461.274780	440.731049	-69.595352	359.805847	327.469269	-24.802961	220.291367	122.823067	-95.114716	173.103775	151.635254	-151.296097	305.424194	41.829048	-143.074112	697.094727	577.057556	-383.561035	785.675293	435.227051	-307.219269	811.954102	259.790833	-370.054626	842.581299	55.518276	-284.525177	778.568909	32.967850	-235.282974	958.002563	47.131950	-240.811783
177	1.76000000	678.585327	1283.207153	-26.170767	615.988281	1294.502808	-358.590454	565.714783	1347.072021	-166.903580	713.622864	1257.489014	-205.840317	658.513367	968.303528	86.564659	477.064941	983.659302	-427.088531	804.545074	762.248901	61.879518	492.598709	737.313812	-440.146988	718.716370	883.699890	-61.740433	676.819458	887.104675	-357.589508	492.395844	887.464478	-181.483749	506.499878	998.876404	-176.924057	774.773010	1004.727966	-211.271591	534.676575	576.326904	-2.858694	480.907837	438.639618	-68.137657	376.195221	329.124268	-23.067127	230.296570	128.915710	-92.435646	185.828018	161.158279	-148.889252	307.945740	41.822720	-142.552551	714.438477	579.891174	-385.477112	800.023499	436.462372	-308.063171	823.387634	260.102020	-370.671783	844.138977	55.200329	-284.426483	779.251709	33.727333	-235.595154	959.206543	44.280968	-240.249207
